<?xml version="1.0" encoding="utf-8"?>
<!-- Generator: Adobe Illustrator 23.0.3, SVG Export Plug-In . SVG Version: 6.00 Build 0)  -->
<svg version="1.1" id="Layer_1" xmlns="http://www.w3.org/2000/svg" xmlns:xlink="http://www.w3.org/1999/xlink" x="0px" y="0px"
	 viewBox="0 0 512 512" style="enable-background:new 0 0 512 512;" xml:space="preserve">
<style type="text/css">
	.st0{fill:#94DD94;}
	.st1{fill:#E5E9ED;}
	.st2{fill:#F8FAFB;}
	.st3{fill:#2D70EC;}
	.st4{opacity:0.15;}
	.st5{fill:#F2464F;}
	.st6{fill:#FFFFFF;}
</style>
<circle class="st0" cx="256" cy="255" r="246"/>
<g>
	<g>
		<polygon class="st1" points="219.63,342.53 328.75,378.91 301.47,206.13 228.72,187.94 		"/>
		<polygon class="st2" points="174.16,197.7 83.22,393 219.63,353.94 328.75,393 428.78,353.94 356.03,187.94 301.47,207.47 
			228.72,187.94 		"/>
		<polygon class="st3" points="195.7,219.77 128.69,353.78 229.2,326.98 309.6,353.78 383.31,326.98 329.71,213.07 289.5,226.47 
			235.9,213.07 		"/>
		<polygon class="st4" points="219.63,353.94 328.75,393 301.47,207.47 228.72,187.94 		"/>
	</g>
	<g>
		<path class="st5" d="M348.74,159.19c0,54.73-79.1,137.88-79.1,137.88s-79.1-77.6-79.1-137.88c0-44.39,35.41-80.37,79.1-80.37
			S348.74,114.8,348.74,159.19z"/>
		<circle class="st6" cx="269.64" cy="156.11" r="40.92"/>
	</g>
</g>
</svg>
