<?xml version="1.0" encoding="utf-8"?>
<!-- Generator: Adobe Illustrator 23.0.3, SVG Export Plug-In . SVG Version: 6.00 Build 0)  -->
<svg version="1.1" id="Layer_1" xmlns="http://www.w3.org/2000/svg" xmlns:xlink="http://www.w3.org/1999/xlink" x="0px" y="0px"
	 viewBox="0 0 512 512" style="enable-background:new 0 0 512 512;" xml:space="preserve">
<style type="text/css">
	.st0{fill:#E5E9ED;}
	.st1{fill:#F8FAFB;}
	.st2{fill:#2D70EC;}
	.st3{opacity:0.15;}
	.st4{fill:#F2464F;}
	.st5{fill:#FFFFFF;}
</style>
<g>
	<g>
		<polygon class="st0" points="204.21,407.72 359.58,459.51 320.74,213.51 217.16,187.61 		"/>
		<polygon class="st1" points="139.47,201.51 10,479.57 204.21,423.96 359.58,479.57 502,423.96 398.42,187.61 320.74,215.42 
			217.16,187.61 		"/>
		<polygon class="st2" points="170.14,232.93 74.74,423.73 217.84,385.57 332.32,423.73 437.26,385.57 360.94,223.39 303.7,242.47 
			227.38,223.39 		"/>
		<polygon class="st3" points="204.21,423.96 359.58,479.57 320.74,215.42 217.16,187.61 		"/>
	</g>
	<g>
		<path class="st4" d="M388.04,146.67c0,77.93-112.62,196.31-112.62,196.31S162.8,232.49,162.8,146.67
			c0-63.2,50.42-114.43,112.62-114.43S388.04,83.47,388.04,146.67z"/>
		<circle class="st5" cx="275.42" cy="142.29" r="58.26"/>
	</g>
</g>
</svg>
